# AST/ASF file generated using VICON BodyLanguage
# -----------------------------------------------
:version 1.10
:name VICON
:units
  mass 1.0
  length 0.45
  angle deg
:documentation
   .ast/.asf automatically generated from VICON data using
   VICON BodyBuilder and BodyLanguage model FoxedUp or BRILLIANT.MOD
:root
   order TX TY TZ RX RY RZ
   axis XYZ
   position 0 0 0  
   orientation 0 0 0 
:bonedata
  begin
     id 1 
     name lhipjoint
     direction 0.653368 -0.678499 0.335782 
     length 2.51848 
     axis 0 0 0  XYZ
  end
  begin
     id 2 
     name lfemur
     direction 0.34202 -0.939693 0  
     length 6.57749  
     axis 0 0 20  XYZ
    dof rx ry rz
    limits (-160.0 20.0)
           (-70.0 70.0)
           (-60.0 70.0)
  end
  begin
     id 3 
     name ltibia
     direction 0.34202 -0.939693 0   
     length 7.94618   
     axis 0 0 20   XYZ
    dof rx
    limits (-10.0 170.0)
  end
  begin
     id 4 
     name lfoot
     direction 0.0811271 -0.222895 0.971461   
     length 2.31339   
     axis -90 7.62852e-016 20   XYZ
    dof rx rz
    limits (-45.0 90.0)
           (-70.0 20.0)
  end
  begin
     id 5 
     name ltoes
     direction 1.53568e-011 -4.21885e-011 1   
     length 1.15935   
     axis -90 7.62852e-016 20   XYZ
    dof rx
    limits (-90.0 20.0)
  end
  begin
     id 6 
     name rhipjoint
     direction -0.640058 -0.688614 0.340788   
     length 2.48149  
     axis 0 0 0  XYZ 
  end
  begin
     id 7 
     name rfemur
     direction -0.34202 -0.939693 0   
     length 6.57875   
     axis 0 0 -20   XYZ
    dof rx ry rz
    limits (-160.0 20.0)
           (-70.0 70.0)
           (-70.0 60.0)
  end
  begin
     id 8 
     name rtibia
     direction -0.34202 -0.939693 0   
     length 7.977   
     axis 0 0 -20   XYZ
    dof rx
    limits (-10.0 170.0)
 end
 begin
     id 9 
     name rfoot
     direction -0.0979793 -0.269196 0.958089   
     length 2.19857  
     axis -90 -7.62852e-016 -20   XYZ
    dof rx rz
    limits (-45.0 90.0)
           (-20.0 70.0)
  end
  begin
     id 10 
     name rtoes
     direction -1.53556e-011 -4.21868e-011 1   
     length 1.09838   
     axis -90 -7.62852e-016 -20   XYZ
    dof rx
    limits (-90.0 20.0)
  end
  begin
     id 11 
     name lowerback
     direction 0.0149039 0.998517 -0.0523597   
     length 2.10809   
     axis 0 0 0   XYZ
    dof rx ry rz
    limits (-20.0 45.0)
           (-30.0 30.0)
           (-30.0 30.0)
  end
  begin
     id 12 
     name upperback
     direction -0.00882659 0.999418 -0.0329624   
     length 2.1102   
     axis 0 0 0   XYZ
    dof rx ry rz
    limits (-20.0 45.0)
           (-30.0 30.0)
           (-30.0 30.0)
  end
  begin
     id 13 
     name thorax
     direction -0.0165585 0.999826 -0.0085833   
     length 2.11039   
     axis 0 0 0   XYZ
    dof rx ry rz
    limits (-20.0 45.0)
           (-30.0 30.0)
           (-30.0 30.0)
  end
  begin
     id 14 
     name lowerneck
     direction -0.0130877 0.999911 0.00260353   
     length 1.73253   
     axis 0 0 0   XYZ
    dof rx ry rz
    limits (-20.0 45.0)
           (-30.0 30.0)
           (-30.0 30.0)
  end
  begin
     id 15 
     name upperneck
     direction -0.0348454 0.928205 -0.370435   
     length 1.66692   
     axis 0 0 0   XYZ
    dof rx ry rz
    limits (-20.0 45.0)
           (-30.0 30.0)
           (-30.0 30.0)
  end
  begin
     id 16
     name head
     direction -0.00807754 0.992494 -0.122026  
     length 1.72765  
     axis 0 0 0   XYZ
    dof rx ry rz
    limits (-20.0 45.0)
           (-30.0 30.0)
           (-30.0 30.0)
  end
  begin
     id 17 
     name lclavicle
     direction 0.987582 0.144023 0.0627671  
     length 3.49235  
     axis 0 0 0   XYZ
    dof ry rz
    limits (-20.0 10.0)
           (0.0 20.0)
  end
  begin
     id 18 
     name lhumerus
     direction 1 -4.48958e-011 -1.45183e-018   
     length 5.41917   
     axis 180 -30 -90   XYZ
    dof rx ry rz
    limits (-60.0 90.0)
           (-90.0 90.0)
           (-90.0 90.0)
  end
  begin
     id 19
     name lradius
     direction 1 -4.48999e-011 5.75106e-027   
     length 2.44373   
     axis 180 -30 -90   XYZ
    dof rx
    limits (-10.0 170.0)
  end
  begin
     id 20
     name lwrist
     direction 1 -4.48987e-011 1.53461e-026   
     length 1.22186   
     axis -1.09697e-014 90 90   XYZ
    dof ry
    limits (-180.0 0.0)
 end
  begin
     id 21 
     name lhand
     direction 1 -4.48881e-011 3.06923e-026   
     length 0.727502   
     axis -1.95843e-014 90 90   XYZ
    dof rx rz
    limits (-90.0 90.0)
           (-45.0 45.0)
  end
  begin
     id 22 
     name lfingers
     direction 1 -4.48907e-011 6.13845e-026   
     length 0.586531   
     axis -3.91686e-014 90 90   XYZ
    dof rx
    limits (0.0 90.0)
  end
  begin
     id 23
     name lthumb
     direction 0.707107 -6.3487e-011 0.707107   
     length 0.842145   
     axis -90 45 2.85299e-015   XYZ
    dof rx rz
    limits (-45.0 45.0)
           (-45.0 45.0)
  end
  begin
     id 24 
     name rclavicle
     direction -0.980998 0.169556 0.0943023   
     length 3.29272  
     axis 0 0 0   XYZ 
    dof ry rz
    limits (-10.0 20.0)
           (-20.0 0.0)
  end
  begin
     id 25 
     name rhumerus
     direction -1 -1.83355e-005 2.45537e-005  
     length 5.58976   
     axis 180 30 90   XYZ
    dof rx ry rz
    limits (-90.0 60.0)
           (-90.0 90.0)
           (-90.0 90.0)
  end
  begin
     id 26 
     name rradius
     direction -1 -4.48967e-011 5.97228e-027   
     length 2.4806   
     axis 180 30 90   XYZ
    dof rx
    limits (-10.0 170.0)
  end
  begin
     id 27 
     name rwrist
     direction -1 -4.48963e-011 1.53461e-026   
     length 1.2403   
     axis -1.09697e-014 -90 -90   XYZ
    dof ry
    limits (-180.0 0.0)
  end
  begin
     id 28
     name rhand
     direction -1 -4.48881e-011 3.06923e-026   
     length 0.816009   
     axis -1.95843e-014 -90 -90   XYZ
    dof rx rz
    limits (-90.0 90.0)
           (-45.0 45.0)
  end
  begin
     id 29
     name rfingers
     direction -1 -4.49018e-011 6.13845e-026   
     length 0.657887   
     axis -3.91686e-014 -90 -90   XYZ
    dof rx
    limits (0.0 90.0)
  end
  begin
     id 30
     name rthumb
     direction -0.707107 -6.34872e-011 0.707107   
     length 0.944599   
     axis -90 -45 -2.85299e-015   XYZ
    dof rx rz
    limits (-45.0 45.0)
           (-45.0 45.0)
  end
:hierarchy
  begin
    root lhipjoint rhipjoint lowerback
    lhipjoint lfemur
    lfemur ltibia
    ltibia lfoot
    lfoot ltoes
    rhipjoint rfemur
    rfemur rtibia
    rtibia rfoot
    rfoot rtoes
    lowerback upperback
    upperback thorax
    thorax lowerneck lclavicle rclavicle
    lowerneck upperneck
    upperneck head
    lclavicle lhumerus
    lhumerus lradius
    lradius lwrist
    lwrist lhand lthumb
    lhand lfingers
    rclavicle rhumerus
    rhumerus rradius
    rradius rwrist
    rwrist rhand rthumb
    rhand rfingers
  end

#!OML:ASF F:\VICON\USERDATA\INSTALL\rory3\rory3.ASF
:FULLY-SPECIFIED
:DEGREES
188
root 1.45757 16.6327 28.0301 33.3325 8.37761 1.5536
lowerback -15.7913 -2.641 4.56741
upperback -12.0169 -3.94365 3.72097
thorax -4.05268 -2.13884 0.908
lowerneck -17.2281 -0.784964 -2.66407
upperneck 41.2643 0.334093 -1.40747
head 18.4476 -0.50121 -0.122409
rclavicle -1.05356e-014 -3.97569e-015
rhumerus -12.574 -11.597 -11.543
rradius 26.7153
rwrist 1.84564
rhand 13.6492 6.25653
rfingers 7.12502
rthumb 38.5786 -19.3829
lclavicle -1.05356e-014 -3.97569e-015
lhumerus 38.4993 5.21889 17.0123
lradius 42.4927
lwrist -6.2306
lhand 22.4095 13.1494
lfingers 7.12502
lthumb 46.7727 35.9151
rfemur -57.2821 7.49059 24.5143
rtibia 41.009
rfoot -60.3041 -29.7208
rtoes 49.2883
lfemur -12.4413 -3.25161 -26.2897
ltibia 29.3725
lfoot 1.20053 43.3012
ltoes 40.1101
189
root 1.45522 16.6269 28.0419 33.4838 8.10246 1.56054
lowerback -16.2631 -2.58751 4.33669
upperback -11.6255 -3.89829 3.73199
thorax -3.35451 -2.08951 1.00517
lowerneck -18.2131 -0.800677 -2.54496
upperneck 41.3141 0.323471 -1.44328
head 18.7486 -0.495731 -0.168696
rclavicle 9.93923e-016 0
rhumerus -12.1738 -12.9275 -11.6459
rradius 26.4679
rwrist 2.37761
rhand 13.7125 6.44076
rfingers 7.12502
rthumb 38.6383 -19.1819
lclavicle 9.93923e-016 0
lhumerus 38.9103 6.09332 16.9753
lradius 42.2141
lwrist -6.17935
lhand 22.2617 13.0201
lfingers 7.12502
lthumb 46.6359 35.8451
rfemur -57.4872 8.06276 24.12
rtibia 41.0923
rfoot -60.8806 -29.4568
rtoes 49.5581
lfemur -12.5029 -3.19688 -26.4244
ltibia 29.2565
lfoot -2.17972 43.4508
ltoes 42.1758
190
root 1.45705 16.6316 28.0515 33.4737 8.1075 1.34641
lowerback -16.1699 -2.53895 4.51065
upperback -11.735 -3.84253 3.7953
thorax -3.53233 -2.07229 0.993472
lowerneck -18.0994 -0.775038 -2.38076
upperneck 41.4655 0.337992 -1.54316
head 18.8101 -0.479081 -0.244489
rclavicle -1.23743e-014 -1.51076e-014
rhumerus -11.8711 -13.8876 -11.6061
rradius 25.8127
rwrist 3.46393
rhand 13.6307 7.11443
rfingers 7.12502
rthumb 38.5612 -18.5299
lclavicle -1.23743e-014 -1.51076e-014
lhumerus 39.1747 6.39889 17.3252
lradius 41.8954
lwrist -6.37503
lhand 22.4082 12.692
lfingers 7.12502
lthumb 46.7715 35.4582
rfemur -57.4204 7.73136 24.6829
rtibia 41.0977
rfoot -60.1469 -29.9173
rtoes 49.0579
lfemur -12.5077 -3.11379 -26.2059
ltibia 29.2327
lfoot -0.0406236 43.5193
ltoes 40.643
191
root 1.45971 16.6347 28.0606 33.4285 8.05947 1.31235
lowerback -15.5849 -2.5101 4.56565
upperback -12.5303 -3.72833 3.77157
thorax -4.72374 -2.04036 1.02593
lowerneck -16.3112 -0.731496 -2.34554
upperneck 41.583 0.34575 -1.60752
head 18.3887 -0.473603 -0.271433
rclavicle 1.97791e-014 1.74931e-014
rhumerus -12.2052 -13.1229 -11.3663
rradius 25.5981
rwrist 4.05898
rhand 13.7469 7.44548
rfingers 7.12502
rthumb 38.6708 -18.168
lclavicle 1.97791e-014 1.74931e-014
lhumerus 39.1116 5.48526 17.5907
lradius 41.5437
lwrist -6.50396
lhand 22.7562 12.2695
lfingers 7.12502
lthumb 47.0935 34.8944
rfemur -57.2692 7.16213 25.1561
rtibia 41.0246
rfoot -59.1289 -30.3246
rtoes 48.4862
lfemur -12.5008 -3.13688 -26.1849
ltibia 29.3346
lfoot 0.160084 43.5701
ltoes 40.4712
192
root 1.46044 16.635 28.0719 33.3951 8.12552 1.04084
lowerback -15.9669 -2.49909 4.73623
upperback -11.6038 -3.81109 3.84458
thorax -3.50806 -2.0666 0.928569
lowerneck -18.9532 -0.71434 -1.94626
upperneck 41.7357 0.354989 -1.68576
head 19.2168 -0.428553 -0.397421
rclavicle 1.9133e-014 -1.74931e-014
rhumerus -11.4641 -15.6003 -11.8157
rradius 25.2837
rwrist 4.78196
rhand 13.695 7.21042
rfingers 7.12502
rthumb 38.6219 -18.4169
lclavicle 1.9133e-014 -1.74931e-014
lhumerus 39.477 6.9579 16.8513
lradius 41.7609
lwrist -5.93322
lhand 22.7172 12.6568
lfingers 7.12502
lthumb 47.0574 35.2977
rfemur -57.1694 7.39291 25.3209
rtibia 40.8715
rfoot -59.208 -30.4967
rtoes 48.6917
lfemur -12.5684 -3.16054 -25.8702
ltibia 29.5092
lfoot -2.32503 43.4433
ltoes 42.1564
193
root 1.46306 16.6348 28.08 33.406 8.19883 0.746401
lowerback -15.8653 -2.38318 5.05652
upperback -12.0275 -3.66066 3.90665
thorax -4.04761 -2.0187 0.863153
lowerneck -17.7425 -0.757879 -2.12261
upperneck 41.731 0.268037 -1.58574
head 18.8735 -0.471742 -0.327419
rclavicle 1.20265e-014 4.29375e-014
rhumerus -11.8683 -14.4115 -11.5383
rradius 25.5251
rwrist 4.26422
rhand 13.6322 6.73346
rfingers 7.12502
rthumb 38.5626 -18.9104
lclavicle 1.20265e-014 4.29375e-014
lhumerus 39.1605 6.06979 16.3879
lradius 41.9941
lwrist -5.2733
lhand 22.1409 12.9818
lfingers 7.12502
lthumb 46.5241 35.8549
rfemur -57.122 7.5564 25.5462
rtibia 40.7083
rfoot -59.3606 -30.3973
rtoes 48.9411
lfemur -12.6918 -3.17371 -25.5454
ltibia 29.6905
lfoot -3.54475 43.1323
ltoes 43.0814
194
root 1.46463 16.6329 28.0894 33.4074 8.24508 0.475636
lowerback -15.7298 -2.35471 5.31341
upperback -12.3938 -3.61865 3.97642
thorax -4.54074 -2.02232 0.82745
lowerneck -16.8147 -0.68829 -1.99465
upperneck 41.8086 0.310232 -1.62887
head 18.6627 -0.438081 -0.358125
rclavicle -6.82825e-014 2.54444e-014
rhumerus -12.2039 -13.1016 -11.4423
rradius 25.9023
rwrist 3.6271
rhand 13.6311 6.66369
rfingers 7.12502
rthumb 38.5615 -18.9805
lclavicle -6.82825e-014 2.54444e-014
lhumerus 38.8518 5.45433 15.9199
lradius 42.0655
lwrist -4.74471
lhand 21.6346 13.1942
lfingers 7.12502
lthumb 46.0547 36.266
rfemur -57.0226 7.40952 26.0022
rtibia 40.5255
rfoot -58.9324 -30.6492
rtoes 48.6044
lfemur -12.8081 -3.20902 -25.237
ltibia 29.8908
lfoot -4.61186 42.972
ltoes 44.039
195
root 1.46754 16.636 28.1006 33.368 8.36771 0.211028
lowerback -15.5066 -2.34109 5.62825
upperback -12.6341 -3.60108 4.05404
thorax -4.94707 -2.04037 0.764013
lowerneck -16.518 -0.653947 -1.96567
upperneck 42.0562 0.329807 -1.59783
head 18.7328 -0.42264 -0.34663
rclavicle -5.61567e-015 2.38542e-014
rhumerus -12.5063 -12.0895 -11.3773
rradius 26.2987
rwrist 3.03133
rhand 13.6377 6.47899
rfingers 7.12502
rthumb 38.5679 -19.1635
lclavicle -5.61567e-015 2.38542e-014
lhumerus 38.7305 5.4913 16.009
lradius 41.9925
lwrist -5.00313
lhand 21.9518 13.2422
lfingers 7.12502
lthumb 46.3488 36.19
rfemur -56.8695 7.01741 26.6188
rtibia 40.3993
rfoot -58.3757 -30.7133
rtoes 48.3232
lfemur -12.8595 -3.31949 -24.8972
ltibia 30.0213
lfoot -2.02939 43.1843
ltoes 42.3765
196
root 1.47036 16.6389 28.1104 33.2679 8.49991 -0.0124093
lowerback -15.2553 -2.30007 5.90646
upperback -12.7534 -3.54622 4.09617
thorax -5.23252 -2.03587 0.681865
lowerneck -16.39 -0.667103 -1.96511
upperneck 42.1436 0.282043 -1.54603
head 18.7508 -0.43415 -0.331933
rclavicle -5.96354e-016 -1.43125e-014
rhumerus -12.6806 -11.802 -11.2829
rradius 26.43
rwrist 2.86474
rhand 13.8496 6.40708
rfingers 7.12502
rthumb 38.7677 -19.1791
lclavicle -5.96354e-016 -1.43125e-014
lhumerus 39.5652 6.56832 17.4875
lradius 41.2904
lwrist -6.89494
lhand 23.1182 13.0016
lfingers 7.12502
lthumb 47.4281 35.4769
rfemur -56.6591 6.35772 27.4102
rtibia 40.3634
rfoot -57.4456 -30.7198
rtoes 48.1333
lfemur -12.77 -3.35742 -24.598
ltibia 30.0245
lfoot -0.640119 43.2892
ltoes 41.2764
